<svg width="60" height="60" viewBox="0 0 60 60" fill="none" xmlns="http://www.w3.org/2000/svg">
<rect width="60" height="60" rx="15" fill="black"/>
<mask id="mask0_1070_980" style="mask-type:luminance" maskUnits="userSpaceOnUse" x="12" y="13" width="36" height="35">
<path d="M12 13H47.2035V48H12V13Z" fill="white"/>
</mask>
<g mask="url(#mask0_1070_980)">
<mask id="mask1_1070_980" style="mask-type:luminance" maskUnits="userSpaceOnUse" x="2" y="3" width="55" height="55">
<path d="M29.0286 3.62207L56.3652 30.0191L29.9682 57.3557L2.63159 30.9587L29.0286 3.62207Z" fill="white"/>
</mask>
<g mask="url(#mask1_1070_980)">
<mask id="mask2_1070_980" style="mask-type:luminance" maskUnits="userSpaceOnUse" x="2" y="3" width="55" height="55">
<path d="M29.0286 3.62207L56.3652 30.0191L29.9682 57.3557L2.63159 30.9587L29.0286 3.62207Z" fill="white"/>
</mask>
<g mask="url(#mask2_1070_980)">
<path d="M47.0238 39.545C47.027 39.4416 46.9881 39.3343 46.8919 39.2413C43.8578 36.3114 40.8238 33.3815 37.7898 30.4524C37.7452 30.4095 37.7015 30.3665 37.657 30.3244C40.4812 27.3993 43.3062 24.4741 46.1304 21.549C46.2647 21.4099 46.3999 21.27 46.535 21.1301C46.6987 20.96 46.694 20.681 46.5239 20.5164C43.9787 18.0587 41.4327 15.6001 38.8867 13.1424C38.7166 12.9778 38.4376 12.9826 38.273 13.1527C35.3487 16.182 32.4235 19.2112 29.4984 22.2397C29.4642 22.2755 29.43 22.3113 29.3959 22.347C26.4659 19.5173 23.536 16.6883 20.6061 13.8593C20.4575 13.7163 20.3096 13.5732 20.161 13.4293C19.9909 13.2656 19.7119 13.2703 19.5473 13.4404C17.0896 15.9864 14.631 18.5316 12.1733 21.0776C12.0087 21.2477 12.0135 21.5267 12.1836 21.6913C15.2177 24.6204 18.2517 27.5503 21.2857 30.4802C21.3295 30.5223 21.374 30.5653 21.4185 30.6082C18.5847 33.5429 15.751 36.4768 12.9173 39.4114C12.7655 39.5688 12.6136 39.7262 12.4618 39.8836C12.2973 40.0537 12.302 40.3327 12.4729 40.4972C15.0181 42.955 17.5641 45.4136 20.1093 47.8713C20.2802 48.0358 20.5592 48.0311 20.723 47.861C23.6576 44.8222 26.5915 41.7833 29.5254 38.7453C29.5771 38.6921 29.628 38.6388 29.6796 38.5856C32.6095 41.4145 35.5395 44.2435 38.4694 47.0733C38.6172 47.2163 38.7659 47.3594 38.9145 47.5025C39.0846 47.667 39.3636 47.6623 39.5274 47.4922C41.9859 44.9462 44.4437 42.4002 46.9022 39.855C46.996 39.7572 47.0302 39.6483 47.0238 39.545Z" fill="url(#paint0_linear_1070_980)"/>
</g>
</g>
</g>
<defs>
<linearGradient id="paint0_linear_1070_980" x1="47.0246" y1="30.5068" x2="12.0529" y2="30.5068" gradientUnits="userSpaceOnUse">
<stop offset="0.07" stop-color="#FF8E0A"/>
<stop offset="0.825" stop-color="#F95C04"/>
</linearGradient>
</defs>
</svg>
