<svg width="220" height="36" viewBox="0 0 220 36" fill="none" xmlns="http://www.w3.org/2000/svg">
<g clip-path="url(#clip0_142_444)">
<path d="M54.3854 18.083C58.6476 18.3129 61.5328 18.4275 63.0407 18.4275C63.3994 18.4275 63.6832 18.3244 63.8921 18.1181C64.1022 17.9119 64.2072 17.6332 64.2072 17.2822V15.2197H58.8415C57.2085 15.2197 56.0223 14.8571 55.2837 14.1314C54.5446 13.4062 54.1753 12.2416 54.1753 10.6383V9.9515C54.1753 8.34867 54.5446 7.18413 55.2837 6.45842C56.0223 5.73325 57.2085 5.37012 58.8415 5.37012H67.032V8.57796H59.7757C58.8415 8.57796 58.3744 9.03599 58.3744 9.9515V10.4101C58.3744 11.3261 58.8415 11.7836 59.7757 11.7836H63.9748C65.4989 11.7836 66.6186 12.1358 67.3337 12.839C68.0499 13.5411 68.4086 14.6404 68.4086 16.1368V17.2822C68.4086 18.7786 68.0499 19.8778 67.3337 20.58C66.6186 21.2821 65.4989 21.6332 63.9748 21.6332C63.182 21.6332 62.3417 21.6183 61.454 21.5893L59.3086 21.4971C57.7219 21.4209 56.0804 21.3145 54.3854 21.1768V18.083Z" fill="#020202"/>
<path d="M78.4401 21.405H74.241V8.57796H69.3401V5.37012H83.3388V8.57796H78.4401V21.405Z" fill="#020202"/>
<path d="M95.4712 9.72298C95.4712 8.80583 95.0046 8.34725 94.0722 8.34725H90.1055C89.1724 8.34725 88.7065 8.80583 88.7065 9.72298V17.0514C88.7065 17.9686 89.1724 18.4272 90.1055 18.4272H94.0722C95.0046 18.4272 95.4712 17.9686 95.4712 17.0514V9.72298ZM99.6725 17.0514C99.6725 18.6565 99.3027 19.8216 98.5641 20.5467C97.8249 21.2708 96.6388 21.6328 95.0063 21.6328H89.1735C87.5388 21.6328 86.3521 21.2708 85.6135 20.5467C84.8761 19.8216 84.5073 18.6565 84.5073 17.0514V9.72298C84.5073 8.11851 84.8761 6.95397 85.6135 6.2299C86.3521 5.50473 87.5388 5.1416 89.1735 5.1416H95.0063C96.6388 5.1416 97.8249 5.50473 98.5641 6.2299C99.3027 6.95397 99.6725 8.11851 99.6725 9.72298V17.0514Z" fill="#020202"/>
<path d="M102.004 5.37012H111.803C113.436 5.37012 114.622 5.73325 115.361 6.45842C116.1 7.18413 116.47 8.34867 116.47 9.9515V12.014C116.47 13.2811 116.256 14.2663 115.828 14.9695C115.4 15.6716 114.72 16.1368 113.788 16.365L116.704 21.405H112.154L109.47 16.5954H106.205V21.405H102.004V5.37012ZM112.27 9.9515C112.27 9.03599 111.804 8.57796 110.872 8.57796H106.205V13.3875H110.872C111.804 13.3875 112.27 12.9301 112.27 12.014V9.9515Z" fill="#020202"/>
<path d="M132.801 12.4704L129.536 18.1971H126.269L123.004 12.4704V21.405H118.802V5.37012H123.236L127.903 13.8461L132.569 5.37012H137.003V21.405H132.801V12.4704Z" fill="#020202"/>
<mask id="mask0_142_444" style="mask-type:luminance" maskUnits="userSpaceOnUse" x="139" y="0" width="25" height="25">
<path d="M139.087 0.1875H163.831V24.3407H139.087V0.1875Z" fill="white"/>
</mask>
<g mask="url(#mask0_142_444)">
<mask id="mask1_142_444" style="mask-type:luminance" maskUnits="userSpaceOnUse" x="132" y="-7" width="39" height="38">
<path d="M151.056 -6.28418L170.27 11.9322L151.717 30.7969L132.503 12.5806L151.056 -6.28418Z" fill="white"/>
</mask>
<g mask="url(#mask1_142_444)">
<mask id="mask2_142_444" style="mask-type:luminance" maskUnits="userSpaceOnUse" x="132" y="-7" width="39" height="38">
<path d="M151.056 -6.28418L170.27 11.9322L151.717 30.7969L132.503 12.5806L151.056 -6.28418Z" fill="white"/>
</mask>
<g mask="url(#mask2_142_444)">
<path d="M163.705 18.5064C163.707 18.4351 163.68 18.3611 163.612 18.2969C161.48 16.275 159.347 14.2531 157.214 12.2317C157.183 12.2021 157.152 12.1725 157.121 12.1434C159.106 10.1248 161.092 8.10615 163.077 6.08753C163.171 5.99154 163.266 5.895 163.361 5.79846C163.476 5.68107 163.473 5.48853 163.353 5.37498C161.564 3.67891 159.775 1.98228 157.985 0.286204C157.866 0.172657 157.67 0.175948 157.554 0.293335C155.499 2.38381 153.443 4.47429 151.387 6.56421C151.363 6.5889 151.339 6.61358 151.315 6.63827C149.255 4.68547 147.196 2.73323 145.137 0.780985C145.032 0.682248 144.928 0.583511 144.824 0.484226C144.704 0.371227 144.508 0.374519 144.392 0.491905C142.665 2.24887 140.937 4.00529 139.209 5.76225C139.094 5.87964 139.097 6.07218 139.217 6.18572C141.349 8.20708 143.482 10.229 145.614 12.2509C145.645 12.28 145.676 12.3096 145.708 12.3392C143.716 14.3644 141.724 16.3891 139.732 18.4143C139.626 18.5229 139.519 18.6315 139.412 18.7401C139.297 18.8575 139.3 19.05 139.42 19.1636C141.209 20.8596 142.998 22.5563 144.787 24.2523C144.908 24.3659 145.104 24.3626 145.219 24.2452C147.281 22.1482 149.344 20.0511 151.406 17.9546C151.442 17.9178 151.478 17.8811 151.514 17.8443C153.573 19.7966 155.633 21.7488 157.692 23.7016C157.796 23.8004 157.901 23.8991 158.005 23.9978C158.125 24.1114 158.321 24.1081 158.436 23.9907C160.164 22.2337 161.891 20.4768 163.619 18.7203C163.685 18.6529 163.709 18.5777 163.705 18.5064Z" fill="url(#paint0_linear_142_444)"/>
</g>
</g>
</g>
<path d="M109.481 26.3584C110.424 26.3584 111.139 26.5987 111.626 27.0781C112.114 27.5564 112.359 28.2585 112.359 29.1845V32.1312C112.359 33.0571 112.114 33.7604 111.626 34.2398C111.139 34.7181 110.424 34.9573 109.481 34.9573H104.602V26.3584H109.481ZM110.106 29.1845C110.106 28.4472 109.731 28.0786 108.98 28.0786H106.855V33.2371H108.98C109.731 33.2371 110.106 32.8684 110.106 32.1312V29.1845Z" fill="#020202"/>
<path d="M117.737 34.9573H113.234V33.2371H114.36V28.0786H113.234V26.3584H117.737V28.0786H116.61V33.2371H117.737V34.9573Z" fill="#020202"/>
<path d="M126.37 34.773C124.418 34.9776 122.625 35.0801 120.991 35.0801C120.173 35.0801 119.572 34.8925 119.187 34.5162C118.804 34.1389 118.613 33.5486 118.613 32.7456V28.8158C118.613 27.9557 118.811 27.3315 119.207 26.942C119.603 26.5531 120.24 26.3584 121.116 26.3584H125.619V28.0786H121.614C121.115 28.0786 120.865 28.3244 120.865 28.8158V32.7456C120.865 32.9343 120.921 33.0846 121.033 33.1954C121.146 33.3051 121.298 33.3599 121.489 33.3599C122.448 33.3599 123.324 33.3396 124.117 33.2985V31.519H122.49V30.0446H126.37V34.773Z" fill="#020202"/>
<path d="M131.748 34.9573H127.245V33.2371H128.371V28.0786H127.245V26.3584H131.748V28.0786H130.621V33.2371H131.748V34.9573Z" fill="#020202"/>
<path d="M137.127 34.9573H134.876V28.0786H132.248V26.3584H139.755V28.0786H137.127V34.9573Z" fill="#020202"/>
<path d="M142.195 34.9573H139.754L143.068 26.3584H145.571L148.888 34.9573H146.447L145.884 33.4214H142.758L142.195 34.9573ZM143.319 31.8262H145.321L144.32 28.9387L143.319 31.8262Z" fill="#020202"/>
<path d="M151.765 33.2371H156.331V34.9573H149.512V26.3584H151.765V33.2371Z" fill="#020202"/>
</g>
<defs>
<linearGradient id="paint0_linear_142_444" x1="163.705" y1="12.2693" x2="139.125" y2="12.2693" gradientUnits="userSpaceOnUse">
<stop offset="0.07" stop-color="#FF8E0A"/>
<stop offset="0.825" stop-color="#F95C04"/>
</linearGradient>
<clipPath id="clip0_142_444">
<rect width="110" height="35.1064" fill="white" transform="translate(54)"/>
</clipPath>
</defs>
</svg>
